<svg width="52" height="24" viewBox="0 0 52 24" fill="none" xmlns="http://www.w3.org/2000/svg">
<path d="M13.1458 19.5714V21.1074H1.36178V19.8834L8.34578 13.0434C9.22578 12.1794 9.81778 11.4354 10.1218 10.8114C10.4418 10.1714 10.6018 9.53142 10.6018 8.89142C10.6018 7.89942 10.2578 7.13142 9.56978 6.58742C8.89778 6.02742 7.92978 5.74742 6.66578 5.74742C4.69778 5.74742 3.16978 6.37142 2.08178 7.61942L0.857781 6.56342C1.51378 5.79542 2.34578 5.20342 3.35378 4.78742C4.37778 4.37142 5.52978 4.16342 6.80978 4.16342C8.52178 4.16342 9.87378 4.57142 10.8658 5.38742C11.8738 6.18742 12.3778 7.29142 12.3778 8.69942C12.3778 9.56342 12.1858 10.3954 11.8018 11.1954C11.4178 11.9954 10.6898 12.9154 9.61778 13.9554L3.90578 19.5714H13.1458ZM29.0319 16.6914H25.6719V21.1074H23.9439V16.6914H14.4639V15.4434L23.3679 4.30742H25.2879L16.6959 15.1554H23.9919V11.2674H25.6719V15.1554H29.0319V16.6914ZM37.3708 0.89942H38.9308L31.0108 23.5074H29.4508L37.3708 0.89942ZM51.5454 4.30742V5.53142L44.5134 21.1074H42.6414L49.5534 5.84342H40.9134V8.98742H39.2094V4.30742H51.5454Z" fill="#ED610A"/>
</svg>
