<svg width="32" height="33" viewBox="0 0 32 33" fill="none" xmlns="http://www.w3.org/2000/svg">
<path d="M16 0.472656C7.17785 0.472656 0 7.62251 0 16.4116C0 25.2007 7.17785 32.3506 16 32.3506C24.8222 32.3506 32 25.2007 32 16.4116C32 7.62251 24.8222 0.472656 16 0.472656ZM16 31.1245C7.85662 31.1245 1.23077 24.5239 1.23077 16.4116C1.23077 8.2993 7.85662 1.69873 16 1.69873C24.1434 1.69873 30.7692 8.2993 30.7692 16.4116C30.7692 24.5239 24.1434 31.1245 16 31.1245Z" fill="#ED610A"/>
<path d="M23.5397 9.87424L14.0818 20.4737L8.384 15.9329C8.11938 15.7214 7.73108 15.7649 7.51938 16.0285C7.30708 16.2934 7.35015 16.679 7.61538 16.8905L13.7692 21.7947C13.8825 21.8849 14.0185 21.929 14.1538 21.929C14.3237 21.929 14.4929 21.8591 14.6142 21.723L24.4603 10.6884C24.6862 10.4358 24.6634 10.0477 24.4092 9.82336C24.1545 9.59776 23.7662 9.62044 23.5397 9.87424Z" fill="#ED610A"/>
</svg>
