<svg width="25" height="24" viewBox="0 0 25 24" fill="none" xmlns="http://www.w3.org/2000/svg">
<path d="M12.8948 0C14.9145 0 16.5634 0.0236686 17.8415 0.0710059C18.9303 0.118343 19.9007 0.307692 20.7528 0.639053C21.5733 0.954635 22.2833 1.41223 22.8829 2.01183C23.4825 2.61144 23.9401 3.3215 24.2557 4.14201C24.5871 4.99408 24.7764 5.9645 24.8238 7.05325C24.8711 8.33136 24.8948 9.98028 24.8948 12C24.8948 14.0197 24.8711 15.6686 24.8238 16.9467C24.7764 18.0355 24.5871 19.0059 24.2557 19.858C23.9401 20.6785 23.4825 21.3886 22.8829 21.9882C22.2833 22.5878 21.5733 23.0454 20.7528 23.3609C19.9007 23.6923 18.9303 23.8817 17.8415 23.929C16.5634 23.9763 14.9145 24 12.8948 24C10.8751 24 9.22614 23.9763 7.94803 23.929C6.85927 23.8817 5.88886 23.6923 5.03679 23.3609C4.21627 23.0454 3.50622 22.5878 2.90661 21.9882C2.307 21.3886 1.84941 20.6785 1.53383 19.858C1.20247 19.0059 1.01312 18.0355 0.965781 16.9467C0.918444 15.6686 0.894775 14.0197 0.894775 12C0.894775 9.98028 0.918444 8.33136 0.965781 7.05325C1.01312 5.9645 1.20247 4.99408 1.53383 4.14201C1.84941 3.3215 2.307 2.61144 2.90661 2.01183C3.50622 1.41223 4.21627 0.954635 5.03679 0.639053C5.88886 0.307692 6.85927 0.118343 7.94803 0.0710059C9.22614 0.0236686 10.8751 0 12.8948 0ZM12.8948 1.56213C10.7962 1.56213 9.08412 1.5858 7.75868 1.63314C6.90661 1.66469 6.11766 1.8146 5.39182 2.08284C4.25572 2.55621 3.45099 3.36095 2.97762 4.49704C2.70937 5.22288 2.55947 6.01183 2.52791 6.86391C2.48057 8.18935 2.45691 9.90138 2.45691 12C2.45691 14.0986 2.48057 15.8107 2.52791 17.1361C2.55947 17.9882 2.70937 18.7771 2.97762 19.503C3.45099 20.6391 4.25572 21.4438 5.39182 21.9172C6.11766 22.1854 6.90661 22.3353 7.75868 22.3669C9.08412 22.4142 10.7962 22.4379 12.8948 22.4379C14.9934 22.4379 16.7054 22.4142 18.0309 22.3669C18.8829 22.3353 19.6719 22.1854 20.3977 21.9172C21.5338 21.4438 22.3386 20.6391 22.8119 19.503C23.0802 18.7771 23.2301 17.9882 23.2616 17.1361C23.309 15.8107 23.3326 14.0986 23.3326 12C23.3326 9.90138 23.309 8.18935 23.2616 6.86391C23.2301 6.01183 23.0802 5.22288 22.8119 4.49704C22.3386 3.36095 21.5338 2.55621 20.3977 2.08284C19.6719 1.8146 18.8829 1.66469 18.0309 1.63314C16.7054 1.5858 14.9934 1.56213 12.8948 1.56213ZM12.8948 16.8047C14.2202 16.8047 15.3524 16.3353 16.2912 15.3965C17.2301 14.4576 17.6995 13.3254 17.6995 12C17.6995 10.6746 17.2301 9.54241 16.2912 8.60355C15.3524 7.66469 14.2202 7.19527 12.8948 7.19527C11.5693 7.19527 10.4372 7.66469 9.49833 8.60355C8.55947 9.54241 8.09004 10.6746 8.09004 12C8.09004 13.3254 8.55947 14.4576 9.49833 15.3965C10.4372 16.3353 11.5693 16.8047 12.8948 16.8047ZM12.8948 5.84615C14.5989 5.84615 16.0506 6.44576 17.2498 7.64497C18.449 8.84418 19.0486 10.2959 19.0486 12C19.0486 13.7041 18.449 15.1558 17.2498 16.355C16.0506 17.5542 14.5989 18.1538 12.8948 18.1538C11.1906 18.1538 9.73896 17.5542 8.53975 16.355C7.34053 15.1558 6.74093 13.7041 6.74093 12C6.74093 10.2959 7.34053 8.84418 8.53975 7.64497C9.73896 6.44576 11.1906 5.84615 12.8948 5.84615ZM20.7528 5.60947C20.7528 6.00394 20.6108 6.33925 20.3267 6.61538C20.0427 6.89152 19.6956 7.02959 19.2853 7.02959C18.8908 7.02959 18.5555 6.89152 18.2794 6.61538C18.0033 6.33925 17.8652 6.00394 17.8652 5.60947C17.8652 5.19921 18.0033 4.85207 18.2794 4.56805C18.5555 4.28402 18.8908 4.14201 19.2853 4.14201C19.6798 4.14201 20.023 4.28797 20.3149 4.57988C20.6068 4.87179 20.7528 5.21499 20.7528 5.60947Z" fill="#ED610A"/>
</svg>
