<svg width="25" height="24" viewBox="0 0 25 24" fill="none" xmlns="http://www.w3.org/2000/svg">
<path d="M12.7895 0C6.18954 0 0.789551 5.40964 0.789551 12.0723C0.789551 18.0964 5.18154 23.0964 10.9175 24V15.5663H7.86954V12.0723H10.9175V9.40964C10.9175 6.38554 12.7055 4.72289 15.4535 4.72289C16.7615 4.72289 18.1295 4.95181 18.1295 4.95181V7.92771H16.6175C15.1295 7.92771 14.6615 8.85542 14.6615 9.80723V12.0723H17.9975L17.4575 15.5663H14.6615V24C17.4893 23.5516 20.0642 22.103 21.9214 19.9157C23.7787 17.7284 24.7959 14.9466 24.7895 12.0723C24.7895 5.40964 19.3895 0 12.7895 0Z" fill="#ED610A"/>
</svg>
