<svg width="600" height="612" viewBox="0 0 600 612" fill="none" xmlns="http://www.w3.org/2000/svg">
<path d="M300 5.5C339.331 5.5 378.277 13.2468 414.614 28.2981C450.951 43.3494 483.967 65.4104 511.778 93.2215C539.59 121.033 561.651 154.049 576.702 190.386C591.753 226.723 599.5 265.669 599.5 305C599.5 344.331 591.753 383.277 576.702 419.614C561.651 455.951 539.59 488.967 511.778 516.778C483.967 544.59 450.951 566.651 414.614 581.702C378.277 596.753 339.331 604.5 300 604.5" stroke="#F6B084"/>
<circle cx="304" cy="5" r="5" fill="#F6B084"/>
<circle cx="437" cy="38" r="5" fill="#F6B084"/>
<circle cx="541" cy="127" r="5" fill="#F6B084"/>
<circle cx="593" cy="243" r="5" fill="#F6B084"/>
<circle cx="593" cy="370" r="5" fill="#F6B084"/>
<circle cx="541" cy="483" r="5" fill="#F6B084"/>
<circle cx="437" cy="572" r="5" fill="#F6B084"/>
<circle cx="304" cy="607" r="5" fill="#F6B084"/>
</svg>
