<svg width="24" height="24" viewBox="0 0 24 24" fill="none" xmlns="http://www.w3.org/2000/svg">
<path d="M15.684 0H8.316C1.596 0 0 1.596 0 8.316V15.684C0 22.404 1.596 24 8.316 24H15.684C22.404 24 24 22.404 24 15.684V8.316C24 1.596 22.404 0 15.684 0ZM19.38 17.124H17.628C16.968 17.124 16.764 16.584 15.6 15.396C14.544 14.4 14.088 14.256 13.836 14.256C13.488 14.256 13.38 14.352 13.38 14.856V16.428C13.38 16.848 13.248 17.112 12.132 17.112C10.284 17.112 8.232 15.984 6.792 13.908C4.62 10.86 4.032 8.556 4.032 8.1C4.032 7.848 4.116 7.608 4.62 7.608H6.384C6.828 7.608 6.996 7.8 7.164 8.28C8.028 10.8 9.468 12.96 10.056 12.96C10.284 12.96 10.38 12.852 10.38 12.3V9.72C10.32 8.544 9.684 8.436 9.684 8.016C9.684 7.8 9.852 7.608 10.128 7.608H12.876C13.248 7.608 13.38 7.8 13.38 8.256V11.724C13.38 12.096 13.536 12.228 13.656 12.228C13.872 12.228 14.064 12.096 14.46 11.688C15.72 10.284 16.62 8.112 16.62 8.112C16.74 7.86 16.932 7.62 17.4 7.62H19.116C19.644 7.62 19.764 7.896 19.644 8.268C19.428 9.288 17.292 12.3 17.316 12.3C17.124 12.6 17.052 12.732 17.316 13.08C17.496 13.332 18.108 13.86 18.516 14.328C19.26 15.18 19.836 15.888 19.992 16.38C20.124 16.872 19.884 17.124 19.38 17.124Z" fill="#ED610A"/>
</svg>
