<svg width="25" height="17" viewBox="0 0 25 17" fill="none" xmlns="http://www.w3.org/2000/svg">
<path d="M10.2842 12.1429L16.5122 8.5L10.2842 4.85714V12.1429ZM24.1562 2.635C24.3122 3.20571 24.4202 3.97071 24.4922 4.94214C24.5762 5.91357 24.6122 6.75143 24.6122 7.48L24.6842 8.5C24.6842 11.1593 24.4922 13.1143 24.1562 14.365C23.8562 15.4579 23.1602 16.1621 22.0802 16.4657C21.5162 16.6236 20.4842 16.7329 18.9002 16.8057C17.3402 16.8907 15.9122 16.9271 14.5922 16.9271L12.6842 17C7.6562 17 4.5242 16.8057 3.2882 16.4657C2.2082 16.1621 1.5122 15.4579 1.2122 14.365C1.0562 13.7943 0.948204 13.0293 0.876204 12.0579C0.792204 11.0864 0.756204 10.2486 0.756204 9.52L0.684204 8.5C0.684204 5.84071 0.876204 3.88571 1.2122 2.635C1.5122 1.54214 2.2082 0.837857 3.2882 0.534286C3.8522 0.376429 4.8842 0.267143 6.4682 0.194286C8.0282 0.109286 9.4562 0.0728571 10.7762 0.0728571L12.6842 0C17.7122 0 20.8442 0.194286 22.0802 0.534286C23.1602 0.837857 23.8562 1.54214 24.1562 2.635Z" fill="#ED610A"/>
</svg>
